#define cf1086ba0e4148bf8141caf3bfc0436aUVfIyqPmt9QHsoyK_width 80
#define cf1086ba0e4148bf8141caf3bfc0436aUVfIyqPmt9QHsoyK_height 80
static char cf1086ba0e4148bf8141caf3bfc0436aUVfIyqPmt9QHsoyK_bits[] = {
  0x00, 0x00, 0x00, 0x00, 0x00, 0x00, 0x00, 0x00, 0x00, 0x00, 0x00, 0x00, 
  0x00, 0x00, 0x00, 0x00, 0x00, 0x00, 0x00, 0x00, 0x00, 0x00, 0x00, 0x00, 
  0x00, 0x00, 0x00, 0x00, 0x00, 0x00, 0x00, 0x00, 0x00, 0x00, 0x80, 0x03, 
  0x00, 0x00, 0x00, 0x00, 0x00, 0x00, 0x00, 0x00, 0x80, 0x03, 0x00, 0x00, 
  0x00, 0x00, 0x00, 0x00, 0x00, 0x00, 0x00, 0x01, 0x00, 0x00, 0x00, 0x00, 
  0x00, 0x00, 0x00, 0x00, 0x00, 0x00, 0x00, 0x00, 0x00, 0x00, 0x00, 0x00, 
  0x00, 0x00, 0x00, 0x01, 0x00, 0x00, 0x00, 0x00, 0x00, 0x00, 0x00, 0x00, 
  0x00, 0x01, 0x00, 0x00, 0x00, 0x00, 0x00, 0x00, 0x00, 0x00, 0x00, 0x00, 
  0x00, 0x00, 0x00, 0x00, 0x00, 0x00, 0x00, 0x00, 0x60, 0x06, 0x00, 0x00, 
  0x00, 0x00, 0x00, 0x00, 0x00, 0x00, 0xFE, 0x7F, 0x00, 0x00, 0x00, 0x00, 
  0x00, 0x00, 0x00, 0xE0, 0xFF, 0xFF, 0x03, 0x00, 0x00, 0x00, 0x00, 0x00, 
  0x00, 0xF0, 0x03, 0xE0, 0x0F, 0x00, 0x00, 0x00, 0x00, 0x00, 0x00, 0x7E, 
  0x00, 0x00, 0x3E, 0x00, 0x00, 0x00, 0x00, 0x00, 0x00, 0x0F, 0x80, 0x03, 
  0x78, 0x00, 0x00, 0x00, 0x00, 0x00, 0x80, 0x03, 0xC0, 0x07, 0xE0, 0x01, 
  0x00, 0x00, 0x00, 0x00, 0xE0, 0x00, 0x60, 0x06, 0x80, 0x07, 0x00, 0x00, 
  0x00, 0x00, 0xF0, 0x00, 0x60, 0x0C, 0x00, 0x07, 0x00, 0x00, 0x00, 0x00, 
  0x38, 0x00, 0x60, 0x0C, 0x00, 0x0E, 0x00, 0x00, 0x00, 0x00, 0x1C, 0x00, 
  0x30, 0x08, 0x00, 0x3C, 0x00, 0x00, 0x00, 0x00, 0x0E, 0x00, 0x30, 0x18, 
  0x00, 0x30, 0x00, 0x00, 0x00, 0x00, 0x06, 0x00, 0x30, 0x18, 0x00, 0x70, 
  0x00, 0x00, 0x00, 0x00, 0x03, 0x00, 0x30, 0x18, 0x00, 0xE0, 0x00, 0x00, 
  0x00, 0x80, 0x03, 0x00, 0x38, 0x18, 0x00, 0xC0, 0x01, 0x00, 0x00, 0x80, 
  0x01, 0x00, 0x18, 0x30, 0x00, 0x80, 0x01, 0x00, 0x00, 0xC0, 0x00, 0x00, 
  0x18, 0x38, 0x00, 0x80, 0x03, 0x00, 0x00, 0xC0, 0x00, 0x00, 0x18, 0x30, 
  0x00, 0x00, 0x03, 0x00, 0x00, 0xE0, 0x00, 0x00, 0x18, 0x30, 0x00, 0x00, 
  0x03, 0x00, 0x00, 0x60, 0x00, 0x00, 0x1C, 0x30, 0x00, 0x00, 0x06, 0x00, 
  0x00, 0x70, 0x00, 0x00, 0x18, 0x30, 0x00, 0x00, 0x06, 0x00, 0x00, 0x30, 
  0x00, 0x00, 0x0C, 0x00, 0x00, 0x00, 0x0E, 0x00, 0x00, 0x30, 0x00, 0x00, 
  0x0C, 0x04, 0x00, 0x00, 0x0C, 0x00, 0x00, 0x30, 0x00, 0xD0, 0xDC, 0xFF, 
  0x17, 0x00, 0x1C, 0x00, 0x00, 0x38, 0x40, 0xFF, 0xDC, 0xFF, 0xFF, 0x01, 
  0x0C, 0x00, 0x00, 0x18, 0xF8, 0x6F, 0x0C, 0x20, 0xFB, 0x0F, 0x18, 0x00, 
  0x00, 0x18, 0x7E, 0x01, 0x0C, 0x00, 0x00, 0x7E, 0x18, 0x00, 0x00, 0x98, 
  0x0F, 0x00, 0xDC, 0xFF, 0x00, 0xF0, 0x1C, 0x00, 0x9C, 0x99, 0x01, 0x80, 
  0x5D, 0xFC, 0x03, 0x80, 0x19, 0x38, 0x9C, 0x99, 0x01, 0xC0, 0x0D, 0xFC, 
  0x07, 0x80, 0x99, 0x3B, 0x08, 0x18, 0x07, 0x80, 0xDD, 0xFC, 0x01, 0xE0, 
  0x18, 0x10, 0x00, 0x18, 0x5F, 0x00, 0x8C, 0x06, 0x00, 0x7A, 0x18, 0x00, 
  0x00, 0x18, 0xF8, 0x07, 0x0C, 0x00, 0xE8, 0x3F, 0x18, 0x00, 0x00, 0x38, 
  0xC0, 0xFF, 0xCC, 0xFB, 0xFF, 0x07, 0x1C, 0x00, 0x00, 0x30, 0x00, 0xFC, 
  0xCD, 0xFF, 0x1F, 0x00, 0x1C, 0x00, 0x00, 0x38, 0x00, 0x00, 0x5C, 0x15, 
  0x00, 0x00, 0x08, 0x00, 0x00, 0x30, 0x00, 0x00, 0x08, 0x00, 0x00, 0x00, 
  0x0C, 0x00, 0x00, 0x30, 0x00, 0x00, 0x1C, 0x30, 0x00, 0x00, 0x0E, 0x00, 
  0x00, 0x70, 0x00, 0x00, 0x1C, 0x30, 0x00, 0x00, 0x0E, 0x00, 0x00, 0x60, 
  0x00, 0x00, 0x18, 0x30, 0x00, 0x00, 0x06, 0x00, 0x00, 0x60, 0x00, 0x00, 
  0x18, 0x30, 0x00, 0x00, 0x07, 0x00, 0x00, 0xC0, 0x00, 0x00, 0x18, 0x30, 
  0x00, 0x00, 0x03, 0x00, 0x00, 0xC0, 0x00, 0x00, 0x18, 0x38, 0x00, 0x80, 
  0x03, 0x00, 0x00, 0xC0, 0x01, 0x00, 0x38, 0x30, 0x00, 0x80, 0x01, 0x00, 
  0x00, 0x80, 0x03, 0x00, 0x10, 0x18, 0x00, 0xC0, 0x01, 0x00, 0x00, 0x00, 
  0x03, 0x00, 0x30, 0x18, 0x00, 0xE0, 0x00, 0x00, 0x00, 0x00, 0x06, 0x00, 
  0x30, 0x18, 0x00, 0x60, 0x00, 0x00, 0x00, 0x00, 0x0E, 0x00, 0x30, 0x18, 
  0x00, 0x78, 0x00, 0x00, 0x00, 0x00, 0x1C, 0x00, 0x60, 0x0C, 0x00, 0x18, 
  0x00, 0x00, 0x00, 0x00, 0x38, 0x00, 0x60, 0x0C, 0x00, 0x1C, 0x00, 0x00, 
  0x00, 0x00, 0x70, 0x00, 0x60, 0x0E, 0x00, 0x07, 0x00, 0x00, 0x00, 0x00, 
  0xE0, 0x00, 0xC0, 0x06, 0x80, 0x07, 0x00, 0x00, 0x00, 0x00, 0xC0, 0x03, 
  0xC0, 0x03, 0xE0, 0x01, 0x00, 0x00, 0x00, 0x00, 0x00, 0x0F, 0x00, 0x01, 
  0xF0, 0x00, 0x00, 0x00, 0x00, 0x00, 0x00, 0x3E, 0x00, 0x00, 0x3C, 0x00, 
  0x00, 0x00, 0x00, 0x00, 0x00, 0xF8, 0x01, 0xC0, 0x1F, 0x00, 0x00, 0x00, 
  0x00, 0x00, 0x00, 0xF0, 0xBF, 0xFD, 0x07, 0x00, 0x00, 0x00, 0x00, 0x00, 
  0x00, 0x00, 0xFF, 0xFF, 0x00, 0x00, 0x00, 0x00, 0x00, 0x00, 0x00, 0x00, 
  0xD0, 0x05, 0x00, 0x00, 0x00, 0x00, 0x00, 0x00, 0x00, 0x00, 0x00, 0x00, 
  0x00, 0x00, 0x00, 0x00, 0x00, 0x00, 0x00, 0x00, 0x00, 0x00, 0x00, 0x00, 
  0x00, 0x00, 0x00, 0x00, 0x00, 0x00, 0x00, 0x01, 0x00, 0x00, 0x00, 0x00, 
  0x00, 0x00, 0x00, 0x00, 0x00, 0x01, 0x00, 0x00, 0x00, 0x00, 0x00, 0x00, 
  0x00, 0x00, 0x00, 0x00, 0x00, 0x00, 0x00, 0x00, 0x00, 0x00, 0x00, 0x00, 
  0x00, 0x01, 0x00, 0x00, 0x00, 0x00, 0x00, 0x00, 0x00, 0x00, 0x80, 0x03, 
  0x00, 0x00, 0x00, 0x00, 0x00, 0x00, 0x00, 0x00, 0x80, 0x03, 0x00, 0x00, 
  0x00, 0x00, 0x00, 0x00, 0x00, 0x00, 0x00, 0x01, 0x00, 0x00, 0x00, 0x00, 
  0x00, 0x00, 0x00, 0x00, 0x00, 0x00, 0x00, 0x00, 0x00, 0x00, 0x00, 0x00, 
  0x00, 0x00, 0x00, 0x00, 0x00, 0x00, 0x00, 0x00, };
