#define 1605635562325_width 80
#define 1605635562325_height 80
static char 1605635562325_bits[] = {
  0x00, 0x00, 0x00, 0x00, 0x00, 0x07, 0x00, 0x00, 0x00, 0x00, 0x00, 0x00, 
  0x00, 0x00, 0x80, 0x0F, 0x00, 0x00, 0x00, 0x00, 0x00, 0x00, 0x00, 0x00, 
  0xC0, 0x1F, 0x00, 0x00, 0x00, 0x00, 0x00, 0x00, 0x00, 0x00, 0xC0, 0x3F, 
  0x00, 0x00, 0x00, 0x00, 0x00, 0x00, 0x00, 0x00, 0xC0, 0x7F, 0x00, 0x00, 
  0x00, 0x00, 0x00, 0x00, 0x00, 0x00, 0xC0, 0xFF, 0x00, 0x00, 0x00, 0x00, 
  0x00, 0x00, 0x00, 0x00, 0xC0, 0xFF, 0x01, 0x00, 0x00, 0x00, 0x00, 0x00, 
  0x00, 0x00, 0xC0, 0xFF, 0x07, 0x00, 0x00, 0x00, 0x00, 0x00, 0x00, 0x00, 
  0xC0, 0xFF, 0x07, 0x00, 0x00, 0x00, 0x00, 0x00, 0x00, 0x00, 0xC0, 0xFF, 
  0x0F, 0x00, 0x00, 0x00, 0x00, 0x00, 0x00, 0x00, 0xC0, 0xFF, 0x1F, 0x00, 
  0x00, 0x00, 0x00, 0x00, 0x00, 0x00, 0x80, 0xEF, 0x7F, 0x00, 0x00, 0x00, 
  0x00, 0x00, 0x00, 0x00, 0xC0, 0xDF, 0x7F, 0x00, 0x00, 0x00, 0x00, 0x00, 
  0x00, 0x00, 0xC0, 0x9F, 0xFF, 0x01, 0x00, 0x00, 0x00, 0x00, 0x00, 0x00, 
  0xC0, 0x0F, 0xFF, 0x01, 0x00, 0x00, 0x00, 0x00, 0x00, 0x00, 0xC0, 0x1F, 
  0xFE, 0x03, 0x00, 0x00, 0x00, 0x00, 0x00, 0x00, 0xC0, 0x1F, 0xFC, 0x0F, 
  0x00, 0x00, 0x00, 0x00, 0x38, 0x00, 0x80, 0x0F, 0xF0, 0x0F, 0x00, 0x00, 
  0x00, 0x00, 0x7E, 0x00, 0xC0, 0x1F, 0xF0, 0x1F, 0x00, 0x00, 0x00, 0x00, 
  0xFE, 0x01, 0xC0, 0x1F, 0xE0, 0x7F, 0x00, 0x00, 0x00, 0x00, 0xFE, 0x01, 
  0xC0, 0x0F, 0xC0, 0x7F, 0x00, 0x00, 0x00, 0x00, 0xFE, 0x03, 0xC0, 0x1F, 
  0x80, 0x7F, 0x00, 0x00, 0x00, 0x00, 0xFC, 0x07, 0xC0, 0x0F, 0xC0, 0x7F, 
  0x00, 0x00, 0x00, 0x00, 0xF8, 0x0F, 0xC0, 0x1F, 0xE0, 0x3F, 0x00, 0x00, 
  0x00, 0x00, 0xF0, 0x1F, 0xC0, 0x1F, 0xF0, 0x1F, 0x00, 0x00, 0x00, 0x00, 
  0xE0, 0x7F, 0xC0, 0x1F, 0xF8, 0x0F, 0x00, 0x00, 0x00, 0x00, 0xC0, 0x7F, 
  0xC0, 0x0F, 0xFE, 0x07, 0x00, 0x00, 0x00, 0x00, 0x80, 0xFF, 0xC0, 0x1F, 
  0xFE, 0x03, 0x00, 0x00, 0x00, 0x00, 0x00, 0xFF, 0xC3, 0x1F, 0xFF, 0x01, 
  0x00, 0x00, 0x00, 0x00, 0x00, 0xFE, 0xC3, 0xCF, 0xFF, 0x00, 0x00, 0x00, 
  0x00, 0x00, 0x00, 0xFC, 0xCF, 0xDF, 0x7F, 0x00, 0x00, 0x00, 0x00, 0x00, 
  0x00, 0xF8, 0xCF, 0xFF, 0x3F, 0x00, 0x00, 0x00, 0x00, 0x00, 0x00, 0xF0, 
  0xFF, 0xFF, 0x1F, 0x00, 0x00, 0x00, 0x00, 0x00, 0x00, 0xE0, 0xFF, 0xFF, 
  0x0F, 0x00, 0x00, 0x00, 0x00, 0x00, 0x00, 0x80, 0xFF, 0xFF, 0x07, 0x00, 
  0x00, 0x00, 0x00, 0x00, 0x00, 0x80, 0xFF, 0xFF, 0x03, 0x00, 0x00, 0x00, 
  0x00, 0x00, 0x00, 0x00, 0xFE, 0xFF, 0x01, 0x00, 0x00, 0x00, 0x00, 0x00, 
  0x00, 0x00, 0xFE, 0xFF, 0x00, 0x00, 0x00, 0x00, 0x00, 0x00, 0x00, 0x00, 
  0xF8, 0x7F, 0x00, 0x00, 0x00, 0x00, 0x00, 0x00, 0x00, 0x00, 0xF8, 0x3F, 
  0x00, 0x00, 0x00, 0x00, 0x00, 0x00, 0x00, 0x00, 0xF8, 0x3F, 0x00, 0x00, 
  0x00, 0x00, 0x00, 0x00, 0x00, 0x00, 0xF8, 0x7F, 0x00, 0x00, 0x00, 0x00, 
  0x00, 0x00, 0x00, 0x00, 0xFE, 0xFF, 0x00, 0x00, 0x00, 0x00, 0x00, 0x00, 
  0x00, 0x00, 0xFE, 0xFF, 0x01, 0x00, 0x00, 0x00, 0x00, 0x00, 0x00, 0x80, 
  0xFF, 0xFF, 0x03, 0x00, 0x00, 0x00, 0x00, 0x00, 0x00, 0xC0, 0xFF, 0xFF, 
  0x07, 0x00, 0x00, 0x00, 0x00, 0x00, 0x00, 0xE0, 0xFF, 0xFF, 0x0F, 0x00, 
  0x00, 0x00, 0x00, 0x00, 0x00, 0xE0, 0xFF, 0xFF, 0x1F, 0x00, 0x00, 0x00, 
  0x00, 0x00, 0x00, 0xF8, 0x8F, 0xFF, 0x3F, 0x00, 0x00, 0x00, 0x00, 0x00, 
  0x00, 0xFC, 0xC7, 0xDF, 0x7F, 0x00, 0x00, 0x00, 0x00, 0x00, 0x00, 0xFC, 
  0xC7, 0xCF, 0xFF, 0x00, 0x00, 0x00, 0x00, 0x00, 0x00, 0xFF, 0xC1, 0x1F, 
  0xFF, 0x01, 0x00, 0x00, 0x00, 0x00, 0x80, 0xFF, 0xC1, 0x0F, 0xFE, 0x03, 
  0x00, 0x00, 0x00, 0x00, 0xC0, 0x7F, 0xC0, 0x1F, 0xFC, 0x07, 0x00, 0x00, 
  0x00, 0x00, 0xE0, 0x7F, 0xC0, 0x0F, 0xF8, 0x0F, 0x00, 0x00, 0x00, 0x00, 
  0xF0, 0x1F, 0xC0, 0x1F, 0xF8, 0x1F, 0x00, 0x00, 0x00, 0x00, 0xF8, 0x0F, 
  0xC0, 0x1F, 0xE0, 0x3F, 0x00, 0x00, 0x00, 0x00, 0xFC, 0x0F, 0xC0, 0x1F, 
  0xC0, 0x7F, 0x00, 0x00, 0x00, 0x00, 0xFE, 0x03, 0xC0, 0x0F, 0x80, 0x7F, 
  0x00, 0x00, 0x00, 0x00, 0xFE, 0x01, 0xC0, 0x1F, 0x80, 0x7F, 0x00, 0x00, 
  0x00, 0x00, 0xFE, 0x00, 0xC0, 0x1F, 0xE0, 0x3F, 0x00, 0x00, 0x00, 0x00, 
  0xFE, 0x00, 0xC0, 0x0F, 0xF0, 0x3F, 0x00, 0x00, 0x00, 0x00, 0x3C, 0x00, 
  0xC0, 0x1F, 0xF8, 0x1F, 0x00, 0x00, 0x00, 0x00, 0x00, 0x00, 0xC0, 0x1F, 
  0xFC, 0x07, 0x00, 0x00, 0x00, 0x00, 0x00, 0x00, 0xC0, 0x0F, 0xFE, 0x03, 
  0x00, 0x00, 0x00, 0x00, 0x00, 0x00, 0xC0, 0x1F, 0xFF, 0x03, 0x00, 0x00, 
  0x00, 0x00, 0x00, 0x00, 0xC0, 0x9F, 0xFF, 0x00, 0x00, 0x00, 0x00, 0x00, 
  0x00, 0x00, 0xC0, 0xCF, 0x7F, 0x00, 0x00, 0x00, 0x00, 0x00, 0x00, 0x00, 
  0xC0, 0xFF, 0x7F, 0x00, 0x00, 0x00, 0x00, 0x00, 0x00, 0x00, 0xC0, 0xFF, 
  0x1F, 0x00, 0x00, 0x00, 0x00, 0x00, 0x00, 0x00, 0xC0, 0xFF, 0x0F, 0x00, 
  0x00, 0x00, 0x00, 0x00, 0x00, 0x00, 0x80, 0xFF, 0x07, 0x00, 0x00, 0x00, 
  0x00, 0x00, 0x00, 0x00, 0xC0, 0xFF, 0x03, 0x00, 0x00, 0x00, 0x00, 0x00, 
  0x00, 0x00, 0xC0, 0xFF, 0x01, 0x00, 0x00, 0x00, 0x00, 0x00, 0x00, 0x00, 
  0xC0, 0xFF, 0x01, 0x00, 0x00, 0x00, 0x00, 0x00, 0x00, 0x00, 0xC0, 0x7F, 
  0x00, 0x00, 0x00, 0x00, 0x00, 0x00, 0x00, 0x00, 0xC0, 0x3F, 0x00, 0x00, 
  0x00, 0x00, 0x00, 0x00, 0x00, 0x00, 0xC0, 0x1F, 0x00, 0x00, 0x00, 0x00, 
  0x00, 0x00, 0x00, 0x00, 0x80, 0x0F, 0x00, 0x00, 0x00, 0x00, 0x00, 0x00, 
  0x00, 0x00, 0x00, 0x07, 0x00, 0x00, 0x00, 0x00, };
