#define 29622_12bfdde33eacb5276ee0604409ca8a15b49718dc175dbb7120de3916a2cbcab7_width 32
#define 29622_12bfdde33eacb5276ee0604409ca8a15b49718dc175dbb7120de3916a2cbcab7_height 32
static char 29622_12bfdde33eacb5276ee0604409ca8a15b49718dc175dbb7120de3916a2cbcab7_bits[] = {
  0x00, 0x00, 0x03, 0x00, 0x00, 0x80, 0x03, 0x00, 0x00, 0x00, 0x0F, 0x00, 
  0x00, 0x80, 0x1F, 0x00, 0x00, 0x80, 0x3F, 0x00, 0x00, 0x00, 0x3B, 0x00, 
  0x00, 0x80, 0xF3, 0x00, 0x80, 0x81, 0xE3, 0x01, 0x80, 0x03, 0xC3, 0x01, 
  0x00, 0x8F, 0xE3, 0x01, 0x00, 0x9E, 0x73, 0x00, 0x00, 0x9C, 0x7B, 0x00, 
  0x00, 0x78, 0x3F, 0x00, 0x00, 0xF0, 0x0F, 0x00, 0x00, 0xE0, 0x0F, 0x00, 
  0x00, 0xC0, 0x03, 0x00, 0x00, 0xC0, 0x07, 0x00, 0x00, 0xE0, 0x07, 0x00, 
  0x00, 0xF0, 0x0F, 0x00, 0x00, 0xB8, 0x3F, 0x00, 0x00, 0x3C, 0x7B, 0x00, 
  0x00, 0x8E, 0xF3, 0x00, 0x00, 0x8F, 0xE3, 0x01, 0x80, 0x03, 0xC3, 0x01, 
  0x80, 0x81, 0xE3, 0x01, 0x00, 0x80, 0x73, 0x00, 0x00, 0x00, 0x7B, 0x00, 
  0x00, 0x80, 0x3F, 0x00, 0x00, 0x00, 0x0F, 0x00, 0x00, 0x80, 0x0F, 0x00, 
  0x00, 0x80, 0x03, 0x00, 0x00, 0x00, 0x03, 0x00, };
