#define 30870_28da90cef07d4ad24051ec15f7aa1823fab34711993f0a8d2c5f9e17ad1632f6_width 80
#define 30870_28da90cef07d4ad24051ec15f7aa1823fab34711993f0a8d2c5f9e17ad1632f6_height 80
static char 30870_28da90cef07d4ad24051ec15f7aa1823fab34711993f0a8d2c5f9e17ad1632f6_bits[] = {
  0x00, 0x00, 0x00, 0x00, 0x00, 0x00, 0x00, 0x00, 0x00, 0x00, 0x00, 0x00, 
  0x00, 0x00, 0x00, 0x00, 0x00, 0x00, 0x00, 0x00, 0x00, 0x00, 0x00, 0x00, 
  0x00, 0x00, 0x00, 0x00, 0x00, 0x00, 0x00, 0x00, 0x00, 0x00, 0x00, 0x00, 
  0x00, 0x00, 0x00, 0x00, 0x00, 0x00, 0x00, 0x00, 0xD0, 0x1B, 0x00, 0x00, 
  0x00, 0x00, 0x00, 0x00, 0x00, 0x80, 0xFF, 0xFF, 0x01, 0x00, 0x00, 0x00, 
  0x00, 0x00, 0x00, 0xF8, 0xFF, 0xFF, 0x0F, 0x00, 0x00, 0x00, 0x00, 0x00, 
  0x00, 0xFE, 0xFF, 0xFF, 0x3F, 0x00, 0x00, 0x00, 0x00, 0x00, 0x80, 0xFF, 
  0xFF, 0xFF, 0xFF, 0x00, 0x00, 0x00, 0x00, 0x00, 0xE0, 0xFF, 0xFF, 0xFF, 
  0xFF, 0x03, 0x00, 0x00, 0x00, 0x00, 0xF0, 0xFF, 0xFF, 0xFF, 0xFF, 0x0F, 
  0x00, 0x00, 0x00, 0x00, 0xFC, 0xFF, 0xEF, 0xFB, 0xFF, 0x1F, 0x00, 0x00, 
  0x00, 0x00, 0xFE, 0x7F, 0xC0, 0x01, 0xFF, 0x7F, 0x00, 0x00, 0x00, 0x00, 
  0xFF, 0x1F, 0xC0, 0x01, 0xFC, 0x7F, 0x00, 0x00, 0x00, 0x80, 0xFF, 0x07, 
  0xC0, 0x03, 0xF0, 0xFF, 0x00, 0x00, 0x00, 0xC0, 0xFF, 0x03, 0xC0, 0x01, 
  0xE0, 0xFF, 0x03, 0x00, 0x00, 0xE0, 0xFF, 0x06, 0x80, 0x01, 0x30, 0xFF, 
  0x03, 0x00, 0x00, 0xF0, 0x3F, 0x0C, 0x00, 0x00, 0x10, 0xFE, 0x0F, 0x00, 
  0x00, 0xF8, 0x1F, 0x08, 0x00, 0x00, 0x10, 0xF8, 0x0F, 0x00, 0x00, 0xFC, 
  0x0F, 0x00, 0x00, 0x00, 0x00, 0xF8, 0x1F, 0x00, 0x00, 0xFC, 0x07, 0x00, 
  0x00, 0x00, 0x00, 0xF0, 0x3F, 0x00, 0x00, 0xFE, 0x03, 0x00, 0x00, 0x00, 
  0x00, 0xC0, 0x3F, 0x00, 0x00, 0xFE, 0x01, 0x00, 0x00, 0x00, 0x00, 0xC0, 
  0x7F, 0x00, 0x00, 0xFF, 0x01, 0x00, 0x00, 0x00, 0x00, 0x80, 0x7F, 0x00, 
  0x00, 0xFF, 0x00, 0x00, 0x00, 0x00, 0x00, 0x80, 0xFF, 0x00, 0x80, 0xFF, 
  0x03, 0x00, 0x00, 0x00, 0x00, 0xE0, 0xFF, 0x00, 0x80, 0xFF, 0x0F, 0x00, 
  0x00, 0x00, 0x00, 0xF0, 0xFF, 0x01, 0xC0, 0xBF, 0x0F, 0x00, 0x00, 0x00, 
  0x00, 0xF8, 0xFE, 0x01, 0xC0, 0x3F, 0x0E, 0x00, 0x00, 0x00, 0x00, 0x70, 
  0xFC, 0x01, 0xC0, 0x1F, 0x00, 0x00, 0x00, 0x00, 0x80, 0x20, 0xFC, 0x03, 
  0xE0, 0x1F, 0x80, 0x07, 0x00, 0x00, 0xE0, 0x01, 0xF8, 0x03, 0xE0, 0x0F, 
  0xC0, 0x1F, 0x00, 0x00, 0xF8, 0x01, 0xF8, 0x03, 0xE0, 0x0F, 0x80, 0x3F, 
  0x00, 0x00, 0xFF, 0x01, 0xF8, 0x07, 0xE0, 0x0F, 0x00, 0xFF, 0x00, 0x00, 
  0xFF, 0x00, 0xF8, 0x07, 0xF0, 0x0F, 0x00, 0xFE, 0x03, 0xE0, 0x3F, 0x00, 
  0xF0, 0x07, 0xF0, 0x07, 0x00, 0xF8, 0x0F, 0xF8, 0x1F, 0x00, 0xF0, 0x07, 
  0xF0, 0x07, 0x00, 0xE0, 0xBF, 0xFD, 0x07, 0x00, 0xF0, 0x07, 0xF0, 0x07, 
  0x00, 0xC0, 0xFF, 0xFF, 0x01, 0x00, 0xF0, 0x07, 0xF0, 0x07, 0x00, 0x00, 
  0xFE, 0x7F, 0x00, 0x00, 0xF0, 0x0F, 0xF0, 0x7F, 0x00, 0x00, 0xFC, 0x1F, 
  0x00, 0x00, 0xFF, 0x07, 0xF0, 0x7F, 0x00, 0x00, 0xF0, 0x0F, 0x00, 0x00, 
  0xFE, 0x0F, 0xF0, 0x07, 0x00, 0x00, 0xF0, 0x07, 0x00, 0x00, 0xF0, 0x07, 
  0xF0, 0x07, 0x00, 0x00, 0xE0, 0x03, 0x00, 0x00, 0xF0, 0x07, 0xF0, 0x0F, 
  0x00, 0x00, 0x00, 0x01, 0x00, 0x00, 0xF0, 0x07, 0xE0, 0x07, 0x00, 0x00, 
  0x00, 0x00, 0x00, 0x00, 0xF0, 0x07, 0xF0, 0x0F, 0x00, 0x00, 0x00, 0x00, 
  0x00, 0x00, 0xF0, 0x07, 0xE0, 0x0F, 0x00, 0x00, 0x00, 0x00, 0x00, 0x00, 
  0xF8, 0x07, 0xE0, 0x0F, 0x00, 0x00, 0x00, 0x00, 0x00, 0x00, 0xF8, 0x03, 
  0xE0, 0x0F, 0x00, 0x00, 0x00, 0x00, 0x00, 0x00, 0xF8, 0x03, 0xE0, 0x1F, 
  0x00, 0x00, 0x00, 0x00, 0x00, 0x00, 0xF8, 0x03, 0xC0, 0x1F, 0x04, 0x00, 
  0x00, 0x00, 0x00, 0x10, 0xFC, 0x03, 0xC0, 0x3F, 0x0F, 0x00, 0x00, 0x00, 
  0x00, 0x78, 0xFC, 0x03, 0xC0, 0xFF, 0x0F, 0x00, 0x00, 0x00, 0x00, 0xF8, 
  0xFF, 0x01, 0x80, 0xFF, 0x07, 0x00, 0x00, 0x00, 0x00, 0xF0, 0xFF, 0x01, 
  0x80, 0xFF, 0x03, 0x00, 0x00, 0x00, 0x00, 0xC0, 0xFF, 0x00, 0x00, 0xFF, 
  0x00, 0x00, 0x00, 0x00, 0x00, 0x80, 0xFF, 0x00, 0x00, 0xFF, 0x01, 0x00, 
  0x00, 0x00, 0x00, 0x80, 0x7F, 0x00, 0x00, 0xFE, 0x01, 0x00, 0x00, 0x00, 
  0x00, 0xC0, 0x7F, 0x00, 0x00, 0xFE, 0x03, 0x00, 0x00, 0x00, 0x00, 0xE0, 
  0x3F, 0x00, 0x00, 0xFC, 0x07, 0x00, 0x00, 0x00, 0x00, 0xE0, 0x1F, 0x00, 
  0x00, 0xF8, 0x0F, 0x00, 0x00, 0x00, 0x00, 0xF8, 0x1F, 0x00, 0x00, 0xF8, 
  0x1F, 0x08, 0x00, 0x00, 0x10, 0xFC, 0x0F, 0x00, 0x00, 0xF0, 0x3F, 0x0C, 
  0x00, 0x00, 0x30, 0xFE, 0x07, 0x00, 0x00, 0xE0, 0xFF, 0x06, 0xC0, 0x01, 
  0x30, 0xFF, 0x03, 0x00, 0x00, 0xC0, 0xFF, 0x07, 0xC0, 0x03, 0xE0, 0xFF, 
  0x01, 0x00, 0x00, 0x80, 0xFF, 0x07, 0xC0, 0x01, 0xF0, 0xFF, 0x00, 0x00, 
  0x00, 0x00, 0xFF, 0x1F, 0xC0, 0x01, 0xFC, 0xFF, 0x00, 0x00, 0x00, 0x00, 
  0xFE, 0xFF, 0xC1, 0x81, 0xFF, 0x3F, 0x00, 0x00, 0x00, 0x00, 0xFC, 0xFF, 
  0xFF, 0xFF, 0xFF, 0x1F, 0x00, 0x00, 0x00, 0x00, 0xF0, 0xFF, 0xFF, 0xFF, 
  0xFF, 0x07, 0x00, 0x00, 0x00, 0x00, 0xE0, 0xFF, 0xFF, 0xFF, 0xFF, 0x03, 
  0x00, 0x00, 0x00, 0x00, 0x00, 0xFF, 0xFF, 0xFF, 0xFF, 0x00, 0x00, 0x00, 
  0x00, 0x00, 0x00, 0xFE, 0xFF, 0xFF, 0x3F, 0x00, 0x00, 0x00, 0x00, 0x00, 
  0x00, 0xF0, 0xFF, 0xFF, 0x0F, 0x00, 0x00, 0x00, 0x00, 0x00, 0x00, 0x80, 
  0xFF, 0xFF, 0x00, 0x00, 0x00, 0x00, 0x00, 0x00, 0x00, 0x00, 0xA0, 0x05, 
  0x00, 0x00, 0x00, 0x00, 0x00, 0x00, 0x00, 0x00, 0x00, 0x00, 0x00, 0x00, 
  0x00, 0x00, 0x00, 0x00, 0x00, 0x00, 0x00, 0x00, 0x00, 0x00, 0x00, 0x00, 
  0x00, 0x00, 0x00, 0x00, 0x00, 0x00, 0x00, 0x00, 0x00, 0x00, 0x00, 0x00, 
  0x00, 0x00, 0x00, 0x00, 0x00, 0x00, 0x00, 0x00, };
