#define 23001_c6bcb30970c1687911fb1f8de96bda0117872f0c1541e4e5f0e843156a87357f_width 32
#define 23001_c6bcb30970c1687911fb1f8de96bda0117872f0c1541e4e5f0e843156a87357f_height 32
static char 23001_c6bcb30970c1687911fb1f8de96bda0117872f0c1541e4e5f0e843156a87357f_bits[] = {
  0x00, 0x00, 0x00, 0x00, 0x00, 0x00, 0x00, 0x00, 0x00, 0xF8, 0x0F, 0x00, 
  0x00, 0xFE, 0x7F, 0x00, 0x00, 0xBF, 0xFD, 0x00, 0xC0, 0x87, 0xE1, 0x01, 
  0xE0, 0x03, 0xA0, 0x03, 0xE0, 0x00, 0x80, 0x07, 0x70, 0x00, 0x00, 0x0F, 
  0x78, 0x00, 0x00, 0x1E, 0xF8, 0x00, 0x00, 0x1F, 0x1C, 0x00, 0x00, 0x1C, 
  0x1C, 0x06, 0x60, 0x38, 0x1C, 0x1C, 0x38, 0x38, 0x0C, 0x30, 0x0C, 0x38, 
  0x1C, 0xE0, 0x07, 0x38, 0x0C, 0x80, 0x03, 0x38, 0x1C, 0x00, 0x00, 0x38, 
  0x1C, 0x00, 0x00, 0x38, 0x1C, 0x00, 0x00, 0x18, 0x98, 0x00, 0x00, 0x1D, 
  0xF8, 0x00, 0x00, 0x1E, 0x38, 0x00, 0x00, 0x0E, 0x70, 0x00, 0x00, 0x0E, 
  0xE0, 0x00, 0x00, 0x07, 0xC0, 0x07, 0xE0, 0x03, 0xC0, 0x87, 0xE0, 0x03, 
  0x00, 0xBF, 0xFF, 0x00, 0x00, 0xFC, 0x7F, 0x00, 0x00, 0xF8, 0x0F, 0x00, 
  0x00, 0x00, 0x00, 0x00, 0x00, 0x00, 0x00, 0x00, };
