#define gps_width 80
#define gps_height 80
static unsigned char gps_bits[] = {
   0x00, 0x00, 0x00, 0x00, 0x00, 0x00, 0x00, 0x00, 0x00, 0x00, 0x00, 0x00,
   0x00, 0x00, 0x00, 0x00, 0x00, 0x00, 0x00, 0x00, 0x00, 0x00, 0x00, 0x00,
   0x00, 0x00, 0x00, 0x00, 0x00, 0x00, 0x00, 0x18, 0x00, 0x00, 0x00, 0x00,
   0x00, 0x00, 0x00, 0x00, 0x00, 0x3c, 0x00, 0x00, 0x00, 0x00, 0x00, 0x00,
   0x00, 0x00, 0x00, 0x7e, 0x00, 0x00, 0x00, 0x00, 0x00, 0x00, 0x00, 0x00,
   0x00, 0xff, 0x00, 0x00, 0x00, 0x00, 0x00, 0x00, 0x00, 0x00, 0x80, 0xff,
   0x01, 0x00, 0x00, 0x00, 0x00, 0x00, 0x00, 0x00, 0xc0, 0xff, 0x03, 0x00,
   0x00, 0x00, 0x00, 0x00, 0x00, 0x00, 0xe0, 0xff, 0x07, 0x00, 0x00, 0x00,
   0x00, 0x00, 0x00, 0x00, 0xf0, 0xff, 0x0f, 0x00, 0x00, 0x00, 0x00, 0x00,
   0x00, 0x00, 0xf8, 0xff, 0x1f, 0x00, 0x00, 0x00, 0x00, 0x00, 0x00, 0x00,
   0xf0, 0xff, 0x3f, 0x00, 0x00, 0x00, 0x00, 0x00, 0x00, 0x00, 0xe0, 0xff,
   0x7f, 0x00, 0x00, 0x00, 0x00, 0x00, 0x00, 0x00, 0xc0, 0xff, 0xff, 0x00,
   0x00, 0x00, 0x00, 0x00, 0x00, 0x00, 0x80, 0xff, 0xff, 0x01, 0x00, 0x00,
   0x00, 0x00, 0x00, 0x00, 0x00, 0xff, 0xff, 0x03, 0x00, 0x00, 0x00, 0x00,
   0x00, 0x00, 0x00, 0xfe, 0xff, 0x07, 0x00, 0x00, 0x00, 0x00, 0x00, 0x00,
   0x00, 0xfc, 0xff, 0x0f, 0x00, 0x00, 0x00, 0x00, 0x00, 0x00, 0x00, 0xf8,
   0xff, 0x1f, 0x00, 0x00, 0x00, 0x00, 0x00, 0x00, 0x00, 0xf0, 0xff, 0x3f,
   0x00, 0x00, 0x00, 0x00, 0x00, 0x00, 0x00, 0xe0, 0xff, 0x7f, 0x00, 0x00,
   0x00, 0x00, 0x00, 0x00, 0x00, 0xc0, 0xff, 0xff, 0x00, 0x00, 0x00, 0x00,
   0x00, 0x00, 0x00, 0x80, 0xff, 0xff, 0x01, 0x00, 0x00, 0x00, 0x00, 0x00,
   0x00, 0x00, 0xff, 0xff, 0x03, 0x00, 0x00, 0x00, 0x00, 0x00, 0x00, 0x00,
   0xfe, 0xff, 0x07, 0x00, 0x00, 0x00, 0x00, 0x00, 0x00, 0x00, 0xfc, 0xff,
   0x0f, 0x00, 0x00, 0x00, 0x00, 0x00, 0x00, 0x00, 0xf8, 0xff, 0x1f, 0x00,
   0x00, 0x00, 0x00, 0x00, 0x00, 0x00, 0xf0, 0xff, 0x0f, 0x00, 0x00, 0x00,
   0x00, 0x00, 0x00, 0x00, 0xe0, 0xff, 0x87, 0x03, 0x00, 0x00, 0x00, 0x00,
   0x00, 0x00, 0xc0, 0xff, 0x83, 0x1f, 0x00, 0x00, 0x00, 0x00, 0x00, 0x00,
   0x80, 0xff, 0xe1, 0x3f, 0x00, 0x00, 0x00, 0x00, 0x00, 0x00, 0x00, 0xff,
   0xe0, 0x7f, 0x00, 0x00, 0x00, 0x00, 0x00, 0x00, 0x00, 0x7e, 0xf8, 0xff,
   0x00, 0x00, 0x00, 0x00, 0x00, 0x00, 0x00, 0x3c, 0xfc, 0xff, 0x01, 0x00,
   0x00, 0x00, 0x00, 0x00, 0x00, 0x18, 0xfc, 0xff, 0x03, 0x00, 0x00, 0x00,
   0x00, 0x00, 0x00, 0x00, 0xff, 0xff, 0x03, 0x00, 0x00, 0x00, 0x00, 0x00,
   0x00, 0x00, 0xff, 0xff, 0x03, 0x00, 0x00, 0x00, 0x00, 0x00, 0x00, 0xc0,
   0xff, 0xff, 0x07, 0x00, 0x00, 0x00, 0x00, 0x00, 0x00, 0xe0, 0xff, 0xff,
   0x0f, 0x00, 0x00, 0x00, 0x00, 0x00, 0x00, 0xe0, 0xff, 0xff, 0x03, 0x00,
   0x00, 0x00, 0x00, 0x00, 0x00, 0xc6, 0xff, 0xff, 0x03, 0x00, 0x00, 0x00,
   0x00, 0x00, 0x80, 0x9f, 0xff, 0xff, 0x00, 0x00, 0x00, 0x00, 0x00, 0x00,
   0x80, 0x3f, 0xff, 0xff, 0x18, 0x00, 0x00, 0x00, 0x00, 0x00, 0x00, 0xff,
   0xfe, 0x3f, 0x3c, 0x00, 0x00, 0x00, 0x00, 0x00, 0x00, 0xff, 0xfd, 0x3f,
   0x7c, 0x00, 0x00, 0x00, 0x00, 0x00, 0x00, 0xff, 0xf9, 0x0f, 0xff, 0x00,
   0x00, 0x00, 0x00, 0x00, 0x00, 0xfe, 0xf7, 0x0f, 0xff, 0x01, 0x00, 0x00,
   0x00, 0x00, 0x00, 0xfc, 0xe7, 0xc3, 0xff, 0x03, 0x00, 0x00, 0x00, 0x00,
   0x00, 0xfc, 0xcf, 0xc3, 0xff, 0x07, 0x00, 0x00, 0x00, 0x00, 0x00, 0xf8,
   0x9f, 0xf0, 0xff, 0x0f, 0x00, 0x00, 0x00, 0x00, 0x00, 0xf8, 0x3f, 0xf0,
   0xff, 0x1f, 0x00, 0x00, 0x00, 0x00, 0x00, 0xfc, 0x3f, 0xf0, 0xff, 0x3f,
   0x00, 0x00, 0x00, 0x00, 0x00, 0xcc, 0x7f, 0xe0, 0xff, 0x7f, 0x00, 0x00,
   0x00, 0x00, 0x00, 0x00, 0x7f, 0xc0, 0xff, 0xff, 0x00, 0x00, 0x00, 0x00,
   0x00, 0x00, 0x7e, 0x80, 0xff, 0xff, 0x01, 0x00, 0x0e, 0x1c, 0x0c, 0x00,
   0x38, 0x00, 0xff, 0xff, 0x03, 0x00, 0x0c, 0x18, 0x1c, 0x00, 0x00, 0x00,
   0xfe, 0xff, 0x07, 0x00, 0x0e, 0x38, 0x3c, 0x00, 0x00, 0x00, 0xfc, 0xff,
   0x0f, 0x00, 0x1c, 0x38, 0x78, 0x00, 0x00, 0x00, 0xf8, 0xff, 0x1f, 0x00,
   0x1c, 0x30, 0xf0, 0x00, 0x00, 0x00, 0xf0, 0xff, 0x3f, 0x00, 0x18, 0x70,
   0xe0, 0x00, 0x00, 0x00, 0xe0, 0xff, 0x7f, 0x00, 0x38, 0xf0, 0x80, 0x00,
   0x00, 0x00, 0xc0, 0xff, 0xff, 0x00, 0x38, 0xe0, 0x00, 0x00, 0x00, 0x00,
   0x80, 0xff, 0xff, 0x01, 0x70, 0xc0, 0x03, 0x00, 0x00, 0x00, 0x00, 0xff,
   0xff, 0x03, 0x70, 0x80, 0x07, 0x00, 0x00, 0x00, 0x00, 0xfe, 0xff, 0x07,
   0xe0, 0x00, 0x3f, 0x00, 0x00, 0x00, 0x00, 0xfc, 0xff, 0x0f, 0xe0, 0x01,
   0xfe, 0x00, 0x00, 0x00, 0x00, 0xf8, 0xff, 0x1f, 0xc0, 0x01, 0xf0, 0x00,
   0x00, 0x00, 0x00, 0xf0, 0xff, 0x1f, 0x80, 0x03, 0x80, 0x00, 0x00, 0x00,
   0x00, 0xe0, 0xff, 0x07, 0x00, 0x0f, 0x00, 0x00, 0x00, 0x00, 0x00, 0xc0,
   0xff, 0x07, 0x00, 0x1e, 0x00, 0x00, 0x00, 0x00, 0x00, 0x80, 0xff, 0x01,
   0x00, 0x3c, 0x00, 0x00, 0x00, 0x00, 0x00, 0x00, 0xff, 0x01, 0x00, 0xf8,
   0x00, 0x00, 0x00, 0x00, 0x00, 0x00, 0x7e, 0x00, 0x00, 0xf0, 0x03, 0x00,
   0x00, 0x00, 0x00, 0x00, 0x7c, 0x00, 0x00, 0xc0, 0x1f, 0x00, 0x00, 0x00,
   0x00, 0x00, 0x18, 0x00, 0x00, 0x00, 0xff, 0x00, 0x00, 0x00, 0x00, 0x00,
   0x10, 0x00, 0x00, 0x00, 0xf8, 0x00, 0x00, 0x00, 0x00, 0x00, 0x00, 0x00,
   0x00, 0x00, 0xc0, 0x00, 0x00, 0x00, 0x00, 0x00, 0x00, 0x00, 0x00, 0x00,
   0x00, 0x00, 0x00, 0x00, 0x00, 0x00, 0x00, 0x00 };
